PathFileType	4	(X/Y/Z)	C:\Users\Basilio\Documents\Thesis Gigler\squatting_fais\c3dfiles\039\SLS_pre_back4\markers_experimental.trc
DataRate	CameraRate	NumFrames	NumMarkers	Units	OrigDataRate	OrigDataStartFrame	OrigNumFrames
200.000000	200.000000	4	64	mm	200.000000	1333	2133
Frame#	Time	FHD			LBHD			RBHD			C7			T10			CLAV			LSHO			LUUPA			LMUPA			LDUPA			LLEP			LMEP			LRAD			LUL			LRFIN			RSHO			RUPA1			RMUPA			RDUPA			RLEP			RMEP			RRAD			RUL			RUFIN			LASI			RASI			USACR			LSACR			RSACR			LTHI1			LTHI2			LTHI3			LTHI4			LLFC			LMFC			LTIB1			LTIB2			LTIB3			LTIB4			LLMAL			LMMAL			LHEE			LMT1			LMT2			LMT5			RTHI			RTHI2			RTHI3			RTHI4			RLFC			RMFC			RTIB1			RTIB2			RTIB3			RTIB4			RLMAL			RMMAL			RHEE			RMT1			RMT2			RMT5			*61			*62			*63			
		X1	Y1	Z1	X2	Y2	Z2	X3	Y3	Z3	X4	Y4	Z4	X5	Y5	Z5	X6	Y6	Z6	X7	Y7	Z7	X8	Y8	Z8	X9	Y9	Z9	X10	Y10	Z10	X11	Y11	Z11	X12	Y12	Z12	X13	Y13	Z13	X14	Y14	Z14	X15	Y15	Z15	X16	Y16	Z16	X17	Y17	Z17	X18	Y18	Z18	X19	Y19	Z19	X20	Y20	Z20	X21	Y21	Z21	X22	Y22	Z22	X23	Y23	Z23	X24	Y24	Z24	X25	Y25	Z25	X26	Y26	Z26	X27	Y27	Z27	X28	Y28	Z28	X29	Y29	Z29	X30	Y30	Z30	X31	Y31	Z31	X32	Y32	Z32	X33	Y33	Z33	X34	Y34	Z34	X35	Y35	Z35	X36	Y36	Z36	X37	Y37	Z37	X38	Y38	Z38	X39	Y39	Z39	X40	Y40	Z40	X41	Y41	Z41	X42	Y42	Z42	X43	Y43	Z43	X44	Y44	Z44	X45	Y45	Z45	X46	Y46	Z46	X47	Y47	Z47	X48	Y48	Z48	X49	Y49	Z49	X50	Y50	Z50	X51	Y51	Z51	X52	Y52	Z52	X53	Y53	Z53	X54	Y54	Z54	X55	Y55	Z55	X56	Y56	Z56	X57	Y57	Z57	X58	Y58	Z58	X59	Y59	Z59	X60	Y60	Z60	X61	Y61	Z61	X62	Y62	Z62	X63	Y63	Z63	X64	Y64	Z64	

1334	6.665	-115.989501953125	1445.629760742188	-623.1374511718751	-278.6468811035157	1439.151000976563	-740.5360107421876	-248.1864776611329	1438.010986328125	-601.8305664062501	-339.4057922363282	1296.142700195313	-693.3867187500001	-460.8999328613282	1038.811157226563	-774.9299316406252	nan	nan	nan	-254.7300415039063	1304.02001953125	-849.5871582031252	-92.78894805908205	1276.054443359375	-964.9556884765627	-69.5403518676758	1304.52734375	-930.9291992187502	-23.58503150939942	1283.248901367188	-962.7088623046877	44.16438674926759	1289.238891601563	-957.1556396484377	47.05117416381837	1217.35107421875	-928.1672363281252	318.1402893066407	1314.703979492188	-855.006286621094	322.3583984375001	1327.112182617188	-929.9893798828127	390.5605468750001	1359.975952148438	-838.988220214844	-235.2314910888672	1280.044067382813	-545.5234375000001	-83.36311340332033	1209.016479492188	-444.0313720703126	-56.5351905822754	1245.458862304688	-466.5945129394532	-14.23566818237305	1208.04052734375	-445.0351562500001	49.12129211425783	1223.277954101563	-453.7535705566407	57.01762008666994	1160.010986328125	-498.2771606445314	336.6261291503907	1283.735717773438	-527.6310424804689	338.9451599121094	1266.043823242188	-454.1245117187501	413.290740966797	1331.962768554688	-517.9963989257814	-384.2088928222657	819.0838012695315	-886.6135253906252	-412.5374145507814	830.1589965820315	-664.3080444335939	-546.9312744140626	926.1800537109377	-797.3666992187502	-560.7138671875001	897.0336914062502	-824.247009277344	-570.9444580078126	901.5596313476565	-766.1099243164064	-382.9531250000001	623.8201293945314	-1031.516967773438	-321.3073120117188	569.8944702148439	-1059.816162109375	-277.2020874023438	575.9782104492189	-1041.39111328125	-330.8108825683594	508.4295349121095	-1071.778076171875	-300.1050109863282	435.8249816894532	-1089.478759765625	-283.0332641601563	352.6285095214844	-1004.325317382813	-389.3117980957032	341.5148315429688	-1105.536010742188	-442.181365966797	410.8581542968751	-1098.962646484375	-439.5896301269532	369.5504760742188	-1113.096069335938	-514.0668334960939	339.4278259277344	-1077.404541015625	-685.9356079101564	386.244110107422	-1066.603881835938	-682.6934814453126	318.4087524414063	-1007.006652832031	-708.4517822265626	419.8477783203126	-986.334655761719	-792.848815917969	227.0174865722657	-1088.01416015625	-793.6345214843752	254.1389312744141	-1123.930297851563	-806.7937011718752	323.5908508300782	-1135.691040039063	-348.7481079101563	635.7694702148439	-595.1342773437501	-282.1506958007813	629.6118164062501	-589.0948486328126	-261.6008605957032	656.0626220703126	-593.8223266601564	-240.4616241455079	555.8389282226564	-595.5992431640626	-182.9413604736328	457.385711669922	-632.4179687500001	-151.1403961181641	478.074920654297	-738.6744384765626	-203.9295196533204	272.4958496093751	-698.3387451171876	-307.2664489746094	240.2206726074219	-694.4463500976564	-266.7266845703126	218.2122039794922	-704.1635742187501	-268.7851867675782	175.8359527587891	-747.1053466796876	-363.1276245117188	110.6646041870117	-739.6242065429689	-333.2312011718751	135.9446868896485	-822.5290527343752	-438.5627441406251	96.84641265869143	-795.1723632812502	-214.2104034423829	53.69130325317384	-804.780456542969	-217.8059082031251	55.4067840576172	-758.6962280273439	-273.5731201171876	35.0100326538086	-708.5626831054689	nan	nan	nan	nan	nan	nan	nan	nan	nan	
1335	6.67	-115.7917175292969	1445.5322265625	-623.1732177734376	-278.5202331542969	1439.084228515625	-740.9234008789064	-248.1024169921876	1437.752685546875	-602.1741333007814	-339.4755249023438	1296.04248046875	-693.7226562500001	-460.9214172363282	1038.634033203125	-775.0305175781252	nan	nan	nan	-254.9478607177735	1303.996215820313	-849.7813720703127	-92.9475784301758	1275.931518554688	-965.0140380859377	-69.70147705078126	1304.48046875	-931.0457153320315	-23.65547370910645	1283.08544921875	-962.9732055664065	43.98384857177735	1289.142822265625	-957.1362304687502	47.3400001525879	1216.746948242188	-927.9903564453127	317.8184204101563	1314.785034179688	-854.9393310546877	322.1249084472657	1327.082641601563	-929.976257324219	390.396209716797	1359.956909179688	-839.0496826171877	-235.1645050048829	1279.835083007813	-545.8318481445314	-83.2728958129883	1209.17138671875	-444.3406066894532	-56.51344299316408	1245.519775390625	-466.9088439941407	-14.08296489715577	1208.122680664063	-445.2361145019532	49.18682098388673	1223.441528320313	-454.0530700683595	56.8474807739258	1159.708251953125	-498.9257202148439	336.7876586914063	1283.908081054688	-527.7769165039064	338.9437866210938	1266.139404296875	-454.2842407226564	413.3232727050782	1332.154663085938	-518.1018066406251	-384.347625732422	818.968933105469	-886.8865356445315	-412.3386230468751	830.0715332031252	-664.6348876953126	-547.0214233398439	925.9553222656252	-797.3632812500002	-560.8187255859376	896.7993774414065	-824.185241699219	-570.9227294921876	901.5142211914065	-766.0895385742189	-382.9590148925782	623.4648437500001	-1031.208374023438	-321.2511901855469	569.3726196289064	-1059.399291992188	-277.4064025878907	575.7015380859376	-1040.784790039063	-330.7024841308594	507.8970947265626	-1071.284790039063	-300.0359802246094	435.1256408691407	-1088.8291015625	-282.9811096191407	352.1111755371094	-1003.645202636719	-389.3442382812501	341.1043090820313	-1104.706176757813	-441.9039306640626	410.2762451171876	-1098.25244140625	-439.4520568847657	369.0384521484376	-1112.139282226563	-513.9688110351564	339.1440734863282	-1076.53955078125	-685.9115600585939	386.0751037597657	-1065.92578125	-682.6334838867189	318.3972167968751	-1006.106201171875	-708.0765380859376	420.1647949218751	-985.4639892578127	-793.452819824219	227.0660247802735	-1086.277587890625	-794.2603759765627	253.994613647461	-1122.033935546875	-807.380310058594	323.6327209472657	-1134.24609375	-348.2376403808594	635.5335693359376	-595.5659179687501	-281.7191162109376	629.5919189453126	-589.6851806640626	-261.1670532226563	656.1177978515626	-594.3309936523439	-239.6952362060547	555.8854980468751	-596.4675292968751	-182.4447174072266	457.5505981445314	-633.3984375000001	-150.8635559082032	478.2102355957032	-739.8279418945314	-203.6726684570313	272.6912231445313	-699.0884399414064	-306.8593139648438	240.2111053466797	-695.0072631835939	-266.5635070800782	218.220199584961	-704.6198730468751	-268.7499389648438	175.9313507080078	-747.3197631835939	-363.0510864257813	110.7299041748047	-739.6611328125001	-333.2485351562501	135.8841552734375	-822.7373046875002	-438.7308044433595	97.16858673095706	-794.9910888671877	-214.1358184814454	53.64066696166994	-804.7998657226565	-217.7371063232422	55.37493896484376	-758.7797241210939	-273.5057983398438	35.08957672119141	-708.5817260742189	nan	nan	nan	nan	nan	nan	nan	nan	nan	
1336	6.675	-115.8288803100586	1445.355712890625	-623.4831542968751	-278.5082397460938	1438.940673828125	-741.2337036132814	-248.1143646240235	1437.787231445313	-602.6255493164064	-339.4589233398438	1295.859497070313	-694.0147094726564	-460.9719543457032	1038.427490234375	-775.1070556640627	nan	nan	nan	-255.1359558105469	1303.979248046875	-849.9915771484377	-93.14788818359376	1275.771240234375	-965.168151855469	-69.86827850341798	1304.44970703125	-931.1409301757815	-23.77615356445313	1282.984619140625	-962.995788574219	43.80214309692384	1289.158447265625	-957.1026000976565	47.16341781616212	1216.783813476563	-927.910095214844	317.5873107910157	1314.784423828125	-854.8492431640627	321.9465942382813	1327.029296875	-929.9635009765627	390.2344665527345	1360.06591796875	-839.1158447265627	-235.1637420654297	1279.728393554688	-546.1541137695314	-83.25537872314455	1209.148559570313	-444.6564941406251	-56.44462203979494	1245.530029296875	-467.3177185058595	-14.01554393768311	1208.204467773438	-445.5354919433595	49.24221801757814	1223.518432617188	-454.3778076171876	57.21783828735353	1160.197021484375	-498.7483520507814	336.9438476562501	1284.157836914063	-528.0114746093751	338.9747619628907	1266.402587890625	-454.4407958984376	413.3270568847657	1332.419311523438	-518.2752685546876	-384.4838256835939	818.8330688476565	-887.252624511719	-412.1423950195314	829.9591064453127	-664.8383789062501	-547.1171875000001	925.776550292969	-797.3035888671877	-560.9132690429689	896.5986328125002	-824.1451416015627	-570.9912109375001	901.3235473632815	-765.9906616210939	-383.0057983398438	623.0109252929689	-1030.9912109375	-321.0528259277344	568.8179321289064	-1059.131958007813	-278.2923889160157	575.1453247070314	-1040.281982421875	-330.7330017089844	507.4823303222657	-1070.957275390625	-299.7771606445313	434.5529174804689	-1088.188842773438	-282.7927856445313	352.1064453125001	-1002.873352050781	-389.1921691894532	340.6692504882813	-1103.628051757813	-441.8503723144532	409.8382263183595	-1097.54345703125	-439.644256591797	368.6709594726563	-1110.784301757813	-513.7383422851564	338.0100402832032	-1075.141357421875	-685.8803100585939	386.0125122070314	-1065.03515625	-682.4884033203126	318.4100036621094	-1005.215087890625	-707.7296752929689	420.0657043457032	-984.696716308594	-793.9462890625002	227.0344543457032	-1084.619506835938	-794.861999511719	254.0019226074219	-1120.3955078125	-807.8940429687502	323.5641174316407	-1132.63134765625	-347.9660644531251	635.7548828125001	-595.8335571289064	-281.0677185058594	629.5706176757814	-590.3880615234376	-260.7199096679688	656.0146484375001	-595.2883911132814	-239.1120910644532	555.8504028320314	-597.3465576171876	-182.0160675048828	457.7659301757814	-634.0531005859376	-150.6853332519532	478.0373840332032	-740.6959228515626	-203.4209747314454	272.7020568847657	-699.7636718750001	-306.6619873046876	240.4122467041016	-695.4027099609376	-266.3301696777344	218.2604064941407	-705.0405273437501	-268.6584777832032	175.9478149414063	-747.7000732421876	-363.0137634277344	110.8352432250977	-739.7825317382814	-333.1862182617188	135.8213806152344	-822.8599243164065	-438.6958618164064	97.15732574462893	-794.9755859375002	-214.1707458496094	53.59625625610353	-804.8638916015627	-217.6464996337891	55.35365295410158	-758.8027954101564	-273.4798583984376	35.08479690551759	-708.6482543945314	nan	nan	nan	nan	nan	nan	nan	nan	nan	
1337	6.68	-115.8577728271485	1445.300537109375	-623.7276000976564	-278.3041992187501	1438.770385742188	-741.5791625976564	-248.041244506836	1437.69921875	-603.0640869140626	-339.5159606933594	1295.692749023438	-694.2722167968751	-461.1123352050782	1038.257202148438	-775.304870605469	nan	nan	nan	-255.3030548095704	1303.913696289063	-850.2014160156252	-93.32869720458986	1275.734375	-965.3025512695315	-69.99977111816408	1304.44140625	-931.275817871094	-23.94772911071778	1282.948120117188	-963.0237426757815	43.63081741333009	1289.137329101563	-957.069274902344	46.98470306396485	1216.748291015625	-927.797546386719	317.4065856933594	1314.8720703125	-854.8876953125002	321.7836303710938	1327.015502929688	-930.0233154296877	390.0849609375001	1360.140014648438	-839.1846923828127	-235.1182708740235	1279.554077148438	-546.5244750976564	-83.20186614990236	1209.199340820313	-444.8977966308595	-56.28034591674806	1245.581787109375	-467.5995178222657	-13.91645908355713	1208.203735351563	-445.9635009765626	49.37780380249025	1223.554931640625	-454.6576538085939	57.03239822387697	1159.873413085938	-499.2927856445314	336.9708557128907	1284.350952148438	-528.2495727539064	338.9918518066407	1266.590942382813	-454.6539306640626	413.319305419922	1332.647705078125	-518.4543457031251	-384.6282348632814	818.6602783203127	-887.5865478515627	-411.8580322265626	829.9497070312502	-664.9469604492189	-547.1807250976564	925.594909667969	-797.3112792968752	-561.0538940429689	896.2905883789065	-824.0551757812502	-571.0110473632814	901.0784912109377	-765.9536132812501	-383.0711669921876	622.6109619140626	-1030.670288085938	-321.2413330078126	568.4337768554689	-1058.600341796875	-278.3619079589844	574.6814575195314	-1039.842407226563	-330.7650146484376	506.8910522460939	-1070.510131835938	-299.8038024902344	434.0443420410157	-1087.545654296875	-282.9837036132813	351.7769470214844	-1001.742004394531	-389.204559326172	340.3086547851563	-1102.873168945313	-441.9503173828126	409.4727478027345	-1096.8427734375	-439.6214599609376	368.2051391601563	-1109.848510742188	-513.7479858398439	337.6201782226563	-1074.04541015625	-685.8790893554689	385.8493652343751	-1063.974975585938	-682.4634399414064	318.4266357421876	-1004.158874511719	-707.2012939453126	420.1089782714845	-983.8340454101565	-794.504089355469	227.2961425781251	-1082.876220703125	-795.5191040039065	254.1483612060547	-1118.860717773438	-808.3767089843752	323.6698913574219	-1131.082153320313	-347.2434387207032	635.6143188476564	-596.2221069335939	-280.4261474609376	629.7670898437501	-591.0866699218751	-260.0736389160157	656.0582885742189	-595.9450683593751	-238.7288513183594	556.0524902343751	-597.8897094726564	-181.5346832275391	456.9543762207032	-634.9277954101564	-150.5884399414063	477.8677368164064	-741.5107421875001	-203.0996093750001	272.6990966796876	-700.4118041992189	-306.4200134277344	240.5884399414063	-695.6013793945314	-266.1142272949219	218.3485565185547	-705.4625244140626	-268.4782104492188	175.930892944336	-748.1809692382814	-362.9079284667969	110.8496932983399	-739.7916259765626	-333.1892395019532	135.7639465332032	-823.0255126953127	-438.5469970703126	96.83565521240237	-795.1226196289065	-214.1879425048829	53.53233718872072	-804.898132324219	-217.7368774414063	55.59270477294923	-758.8613281250001	-273.5058593750001	35.46298217773438	-708.4468994140626	nan	nan	nan	nan	nan	nan	nan	nan	nan	
